<svg width="268" height="429" viewBox="0 0 268 429" fill="none" xmlns="http://www.w3.org/2000/svg">
<path d="M6.7 241.212C6.7 284.481 25.2422 303.073 53.6 312.098V348.562H214.4V312.098C242.758 303.073 261.3 284.447 261.3 241.212C261.3 215.564 252.314 184.989 238.947 155.278L154.937 239.343C153.681 240.6 151.978 241.305 150.201 241.305C148.425 241.305 146.722 240.6 145.465 239.343L135.993 229.867C134.738 228.61 134.032 226.906 134.032 225.129C134.032 223.352 134.738 221.647 135.993 220.39L226.351 129.957C208.931 98.1924 187.432 69.5449 166.997 52.3765C178.722 49.511 187.6 39.4228 187.6 26.8125C187.6 19.7014 184.776 12.8815 179.75 7.8532C174.724 2.82488 167.908 0 160.8 0L107.2 0C100.092 0 93.2755 2.82488 88.2495 7.8532C83.2236 12.8815 80.4 19.7014 80.4 26.8125C80.4 39.3809 89.2775 49.511 101.002 52.3765C56.7909 89.4867 6.7 179.728 6.7 241.212ZM254.6 375.375H13.4C9.8461 375.375 6.43776 376.787 3.92477 379.302C1.41178 381.816 0 385.226 0 388.781L0 415.594C0 419.149 1.41178 422.559 3.92477 425.073C6.43776 427.588 9.8461 429 13.4 429H254.6C258.154 429 261.562 427.588 264.075 425.073C266.588 422.559 268 419.149 268 415.594V388.781C268 385.226 266.588 381.816 264.075 379.302C261.562 376.787 258.154 375.375 254.6 375.375Z" fill="#424242"/>
</svg>
