<svg width="343" height="429" viewBox="0 0 343 429" fill="none" xmlns="http://www.w3.org/2000/svg">
<path d="M16.9714 214.92L53.2633 231.061C56.7519 232.613 60.5157 233.449 64.3326 233.521C68.1495 233.593 71.9422 232.9 75.4868 231.481L86.9023 226.905C90.8923 225.308 94.471 222.831 97.3721 219.659C100.273 216.487 102.422 212.701 103.659 208.583L111.895 181.19C112.644 178.187 114.034 175.383 115.969 172.968C117.904 170.554 120.339 168.587 123.105 167.203L142.863 157.3V202.282C142.865 210.25 140.648 218.061 136.463 224.84C132.277 231.618 126.288 237.096 119.166 240.66L68.0552 266.266C56.1902 272.209 46.2132 281.34 39.2418 292.636C32.2703 303.932 28.5797 316.947 28.5834 330.223V343.2H314.292V171.6C314.292 76.8625 237.545 0 142.863 0H10.7188C7.87602 0 5.14967 1.12995 3.13951 3.14128C1.12936 5.15261 6.44617e-05 7.88055 6.44617e-05 10.725C-0.00138983 13.077 0.546108 15.3968 1.59894 17.4996L14.2917 42.9L6.25267 50.9438C4.26363 52.9409 2.68759 55.3107 1.61471 57.9178C0.541832 60.5249 -0.00684543 63.3181 6.44617e-05 66.1375V188.769C-0.003326 194.304 1.59833 199.72 4.61077 204.362C7.62321 209.004 11.917 212.672 16.9714 214.92V214.92ZM46.448 85.8C49.9813 85.8 53.4352 86.8483 56.373 88.8125C59.3108 90.7766 61.6006 93.5683 62.9527 96.8345C64.3048 100.101 64.6586 103.695 63.9693 107.162C63.28 110.63 61.5785 113.815 59.0801 116.315C56.5817 118.814 53.3986 120.517 49.9332 121.207C46.4678 121.896 42.8758 121.542 39.6115 120.189C36.3472 118.836 33.5571 116.545 31.5941 113.606C29.6311 110.666 28.5834 107.21 28.5834 103.675C28.5834 98.9343 30.4655 94.3877 33.8158 91.0355C37.1661 87.6833 41.71 85.8 46.448 85.8V85.8ZM328.708 371.8H14.2917C10.5013 371.8 6.8662 373.307 4.186 375.988C1.50579 378.67 6.44617e-05 382.307 6.44617e-05 386.1V414.7C6.44617e-05 418.493 1.50579 422.13 4.186 424.812C6.8662 427.493 10.5013 429 14.2917 429H328.708C332.499 429 336.134 427.493 338.814 424.812C341.494 422.13 343 418.493 343 414.7V386.1C343 382.307 341.494 378.67 338.814 375.988C336.134 373.307 332.499 371.8 328.708 371.8Z" fill="#424242"/>
</svg>
