<svg width="429" height="429" viewBox="0 0 429 429" fill="none" xmlns="http://www.w3.org/2000/svg">
<path d="M214.5 93.8438C223.78 93.8438 232.852 91.0919 240.569 85.936C248.285 80.7802 254.299 73.452 257.85 64.8781C261.402 56.3043 262.331 46.8698 260.521 37.7679C258.71 28.6659 254.241 20.3053 247.679 13.7431C241.117 7.18098 232.756 2.7121 223.654 0.901612C214.552 -0.908879 205.118 0.0203309 196.544 3.57174C187.97 7.12314 180.642 13.1372 175.486 20.8535C170.33 28.5698 167.578 37.6416 167.578 46.9219C167.578 59.3664 172.521 71.3011 181.321 80.1007C190.121 88.9002 202.055 93.8438 214.5 93.8438V93.8438ZM361.969 375.375H67.0305C63.475 375.375 60.065 376.787 57.5508 379.302C55.0367 381.816 53.6242 385.226 53.6242 388.781V415.594C53.6242 419.149 55.0367 422.559 57.5508 425.073C60.065 427.588 63.475 429 67.0305 429H361.969C365.525 429 368.935 427.588 371.449 425.073C373.963 422.559 375.376 419.149 375.376 415.594V388.781C375.376 385.226 373.963 381.816 371.449 379.302C368.935 376.787 365.525 375.375 361.969 375.375ZM423.027 154.306L399.138 140.967C392.905 136.777 384.97 138.906 380.462 144.888C375.971 150.9 369.875 155.522 362.875 158.224C355.874 160.926 348.253 161.598 340.888 160.163C321.499 156.568 308.344 138.193 308.344 118.478C308.344 115.5 307.161 112.644 305.056 110.539C302.95 108.433 300.094 107.25 297.116 107.25H264.631C259.604 107.25 254.903 110.602 253.856 115.554C251.955 124.583 247.006 132.684 239.84 138.498C232.675 144.312 223.728 147.485 214.5 147.485C205.272 147.485 196.325 144.312 189.16 138.498C181.994 132.684 177.045 124.583 175.144 115.554C174.097 110.593 169.43 107.25 164.369 107.25H131.884C128.906 107.25 126.05 108.433 123.944 110.539C121.839 112.644 120.656 115.5 120.656 118.478C120.656 140.003 104.736 159.325 83.227 160.783C76.5438 161.254 69.8497 160.031 63.7653 157.226C57.6809 154.421 52.403 150.125 48.4209 144.737C43.9968 138.797 36.0787 136.819 29.9118 140.933L5.97315 154.339C3.25336 156.151 1.28913 158.895 0.449744 162.053C-0.389644 165.212 -0.0463803 168.568 1.415 171.491L87.3411 348.563H341.659L427.585 171.458C429.046 168.534 429.39 165.178 428.55 162.02C427.711 158.861 425.747 156.118 423.027 154.306V154.306Z" fill="#424242"/>
</svg>
