<svg width="343" height="429" viewBox="0 0 343 429" fill="none" xmlns="http://www.w3.org/2000/svg">
<path d="M328.708 0H278.688C274.897 0 271.262 1.5066 268.582 4.18837C265.902 6.87014 264.396 10.5074 264.396 14.3V57.2H221.521V14.3C221.521 10.5074 220.015 6.87014 217.335 4.18837C214.655 1.5066 211.02 0 207.229 0H135.771C131.98 0 128.345 1.5066 125.665 4.18837C122.985 6.87014 121.479 10.5074 121.479 14.3V57.2H78.6935V14.3C78.6935 10.5074 77.1878 6.87014 74.5076 4.18837C71.8274 1.5066 68.1922 0 64.4018 0H14.2917C10.5013 0 6.86614 1.5066 4.18593 4.18837C1.50573 6.87014 0 10.5074 0 14.3L0 171.6L57.1667 200.2C57.1667 243.395 55.7911 285.106 45.3671 343.2H297.633C287.209 285.106 285.833 242.85 285.833 200.2L343 171.6V14.3C343 10.5074 341.494 6.87014 338.814 4.18837C336.134 1.5066 332.499 0 328.708 0V0ZM200.083 257.4H142.917V200.2C142.917 192.615 145.928 185.34 151.289 179.977C156.649 174.613 163.919 171.6 171.5 171.6C179.081 171.6 186.351 174.613 191.711 179.977C197.072 185.34 200.083 192.615 200.083 200.2V257.4ZM328.708 371.8H14.2917C10.5013 371.8 6.86614 373.307 4.18593 375.988C1.50573 378.67 0 382.307 0 386.1L0 414.7C0 418.493 1.50573 422.13 4.18593 424.812C6.86614 427.493 10.5013 429 14.2917 429H328.708C332.499 429 336.134 427.493 338.814 424.812C341.494 422.13 343 418.493 343 414.7V386.1C343 382.307 341.494 378.67 338.814 375.988C336.134 373.307 332.499 371.8 328.708 371.8Z" fill="#424242"/>
</svg>
