<svg width="269" height="429" viewBox="0 0 269 429" fill="none" xmlns="http://www.w3.org/2000/svg">
<path d="M6.70312 241.212C6.70312 284.481 25.254 303.073 53.625 312.098V348.562H214.5V312.098C242.871 303.073 261.422 284.447 261.422 241.212C261.422 215.564 252.431 184.989 239.059 155.278L155.01 239.343C153.753 240.6 152.049 241.305 150.271 241.305C148.494 241.305 146.79 240.6 145.533 239.343L136.057 229.867C134.801 228.61 134.095 226.906 134.095 225.129C134.095 223.352 134.801 221.647 136.057 220.39L226.457 129.957C209.029 98.1924 187.52 69.5449 167.075 52.3765C178.806 49.511 187.688 39.4228 187.688 26.8125C187.688 19.7014 184.863 12.8815 179.834 7.8532C174.806 2.82488 167.986 0 160.875 0L107.25 0C100.139 0 93.319 2.82488 88.2907 7.8532C83.2624 12.8815 80.4375 19.7014 80.4375 26.8125C80.4375 39.3809 89.3191 49.511 101.05 52.3765C56.8174 89.4867 6.70312 179.728 6.70312 241.212ZM254.719 375.375H13.4062C9.85069 375.375 6.44076 376.787 3.9266 379.302C1.41244 381.816 0 385.226 0 388.781L0 415.594C0 419.149 1.41244 422.559 3.9266 425.073C6.44076 427.588 9.85069 429 13.4062 429H254.719C258.274 429 261.684 427.588 264.198 425.073C266.713 422.559 268.125 419.149 268.125 415.594V388.781C268.125 385.226 266.713 381.816 264.198 379.302C261.684 376.787 258.274 375.375 254.719 375.375Z" fill="#E6E6E6"/>
</svg>
