<svg width="376" height="429" viewBox="0 0 376 429" fill="none" xmlns="http://www.w3.org/2000/svg">
<path d="M335.135 375.375H40.1979C36.6424 375.375 33.2324 376.787 30.7183 379.302C28.2041 381.816 26.7917 385.226 26.7917 388.781V415.594C26.7917 419.149 28.2041 422.559 30.7183 425.073C33.2324 427.588 36.6424 429 40.1979 429H335.135C338.691 429 342.101 427.588 344.615 425.073C347.129 422.559 348.542 419.149 348.542 415.594V388.781C348.542 385.226 347.129 381.816 344.615 379.302C342.101 376.787 338.691 375.375 335.135 375.375ZM348.542 134.062H214.479V93.8438H247.995C249.773 93.8438 251.478 93.1375 252.735 91.8804C253.992 90.6234 254.698 88.9184 254.698 87.1406V46.9219C254.698 45.1441 253.992 43.4391 252.735 42.1821C251.478 40.925 249.773 40.2188 247.995 40.2188H214.479V6.70312C214.479 4.92535 213.773 3.22038 212.516 1.9633C211.259 0.70622 209.554 0 207.776 0L167.557 0C165.78 0 164.075 0.70622 162.817 1.9633C161.56 3.22038 160.854 4.92535 160.854 6.70312V40.2188H127.339C125.561 40.2188 123.856 40.925 122.599 42.1821C121.342 43.4391 120.635 45.1441 120.635 46.9219V87.1406C120.635 88.9184 121.342 90.6234 122.599 91.8804C123.856 93.1375 125.561 93.8438 127.339 93.8438H160.854V134.062H26.7917C22.588 134.066 18.4441 135.057 14.6943 136.957C10.9445 138.857 7.69392 141.612 5.205 145C2.71608 148.387 1.05854 152.313 0.366184 156.459C-0.326175 160.605 -0.0339557 164.856 1.21925 168.868L62.4523 348.562H312.881L374.114 168.868C375.367 164.856 375.66 160.605 374.967 156.459C374.275 152.313 372.617 148.387 370.128 145C367.639 141.612 364.389 138.857 360.639 136.957C356.889 135.057 352.745 134.066 348.542 134.062V134.062Z" fill="#E6E6E6"/>
</svg>
