<svg width="344" height="429" viewBox="0 0 344 429" fill="none" xmlns="http://www.w3.org/2000/svg">
<path d="M16.9813 214.92L53.2944 231.061C56.785 232.613 60.551 233.449 64.3701 233.521C68.1893 233.593 71.9842 232.9 75.5309 231.481L86.953 226.905C90.9453 225.308 94.5261 222.831 97.4289 219.659C100.332 216.487 102.482 212.701 103.72 208.583L111.96 181.19C112.71 178.187 114.101 175.383 116.037 172.968C117.973 170.554 120.409 168.587 123.177 167.203L142.946 157.3V202.282C142.948 210.25 140.731 218.061 136.543 224.84C132.355 231.618 126.362 237.096 119.235 240.66L68.0949 266.266C56.223 272.209 46.2402 281.34 39.2646 292.636C32.2891 303.932 28.5964 316.947 28.6001 330.223V343.2H314.475V171.6C314.475 76.8625 237.684 0 142.946 0H10.7251C7.88062 0 5.15267 1.12995 3.14134 3.14128C1.13002 5.15261 6.44993e-05 7.88055 6.44993e-05 10.725C-0.00139065 13.077 0.546427 15.3968 1.59988 17.4996L14.3001 42.9L6.25631 50.9438C4.26611 52.9409 2.68916 55.3107 1.61565 57.9178C0.542148 60.5249 -0.00684942 63.3181 6.44993e-05 66.1375V188.769C-0.00332794 194.304 1.59926 199.72 4.61346 204.362C7.62765 209.004 11.924 212.672 16.9813 214.92V214.92ZM46.4751 85.8C50.0104 85.8 53.4664 86.8483 56.4059 88.8125C59.3454 90.7766 61.6365 93.5683 62.9894 96.8345C64.3423 100.101 64.6963 103.695 64.0066 107.162C63.3169 110.63 61.6145 113.815 59.1146 116.315C56.6147 118.814 53.4297 120.517 49.9623 121.207C46.4949 121.896 42.9008 121.542 39.6346 120.189C36.3684 118.836 33.5767 116.545 31.6125 113.606C29.6484 110.666 28.6001 107.21 28.6001 103.675C28.6001 98.9343 30.4833 94.3877 33.8355 91.0355C37.1877 87.6833 41.7343 85.8 46.4751 85.8V85.8ZM328.9 371.8H14.3001C10.5075 371.8 6.87021 373.307 4.18844 375.988C1.50667 378.67 6.44993e-05 382.307 6.44993e-05 386.1V414.7C6.44993e-05 418.493 1.50667 422.13 4.18844 424.812C6.87021 427.493 10.5075 429 14.3001 429H328.9C332.693 429 336.33 427.493 339.012 424.812C341.693 422.13 343.2 418.493 343.2 414.7V386.1C343.2 382.307 341.693 378.67 339.012 375.988C336.33 373.307 332.693 371.8 328.9 371.8Z" fill="#E6E6E6"/>
</svg>
