<svg width="270" height="405" viewBox="0 0 270 405" fill="none" xmlns="http://www.w3.org/2000/svg">
<path d="M88.6781 162H67.5C63.9196 162 60.4858 163.422 57.9541 165.954C55.4223 168.486 54 171.92 54 175.5V202.5C54 206.08 55.4223 209.514 57.9541 212.046C60.4858 214.578 63.9196 216 67.5 216H81V220.632C81 257.757 77.5069 293.701 60.75 324H209.25C192.468 293.701 189 257.757 189 220.632V216H202.5C206.08 216 209.514 214.578 212.046 212.046C214.578 209.514 216 206.08 216 202.5V175.5C216 171.92 214.578 168.486 212.046 165.954C209.514 163.422 206.08 162 202.5 162H181.322C206.12 146.492 222.75 119.154 222.75 87.75C222.75 64.4773 213.505 42.1577 197.049 25.7014C180.592 9.24506 158.273 0 135 0C111.727 0 89.4077 9.24506 72.9514 25.7014C56.4951 42.1577 47.25 64.4773 47.25 87.75C47.25 119.154 63.8803 146.492 88.6781 162ZM256.5 351H13.5C9.91958 351 6.4858 352.422 3.95406 354.954C1.42232 357.486 0 360.92 0 364.5L0 391.5C0 395.08 1.42232 398.514 3.95406 401.046C6.4858 403.578 9.91958 405 13.5 405H256.5C260.08 405 263.514 403.578 266.046 401.046C268.578 398.514 270 395.08 270 391.5V364.5C270 360.92 268.578 357.486 266.046 354.954C263.514 352.422 260.08 351 256.5 351Z" fill="#E6E6E6"/>
</svg>
