<svg width="429" height="429" viewBox="0 0 429 429" fill="none" xmlns="http://www.w3.org/2000/svg">
<path d="M214.499 93.8438C223.779 93.8438 232.851 91.0919 240.567 85.936C248.284 80.7802 254.298 73.452 257.849 64.8781C261.401 56.3043 262.33 46.8698 260.519 37.7679C258.709 28.6659 254.24 20.3053 247.678 13.7431C241.116 7.18098 232.755 2.7121 223.653 0.901612C214.551 -0.908879 205.117 0.0203309 196.543 3.57174C187.969 7.12314 180.641 13.1372 175.485 20.8535C170.329 28.5698 167.577 37.6416 167.577 46.9219C167.577 59.3664 172.521 71.3011 181.32 80.1007C190.12 88.9002 202.055 93.8438 214.499 93.8438V93.8438ZM361.968 375.375H67.0302C63.4746 375.375 60.0647 376.787 57.5506 379.302C55.0364 381.816 53.624 385.226 53.624 388.781V415.594C53.624 419.149 55.0364 422.559 57.5506 425.073C60.0647 427.588 63.4746 429 67.0302 429H361.968C365.523 429 368.933 427.588 371.447 425.073C373.962 422.559 375.374 419.149 375.374 415.594V388.781C375.374 385.226 373.962 381.816 371.447 379.302C368.933 376.787 365.523 375.375 361.968 375.375ZM423.025 154.306L399.137 140.967C392.903 136.777 384.968 138.906 380.46 144.888C375.969 150.9 369.873 155.522 362.873 158.224C355.872 160.926 348.252 161.598 340.886 160.163C321.498 156.568 308.343 138.193 308.343 118.478C308.343 115.5 307.16 112.644 305.054 110.539C302.949 108.433 300.093 107.25 297.115 107.25H264.63C259.603 107.25 254.902 110.602 253.855 115.554C251.953 124.583 247.005 132.684 239.839 138.498C232.674 144.312 223.727 147.485 214.499 147.485C205.271 147.485 196.324 144.312 189.159 138.498C181.993 132.684 177.045 124.583 175.143 115.554C174.096 110.593 169.429 107.25 164.368 107.25H131.883C128.905 107.25 126.049 108.433 123.944 110.539C121.838 112.644 120.655 115.5 120.655 118.478C120.655 140.003 104.735 159.325 83.2266 160.783C76.5434 161.254 69.8494 160.031 63.765 157.226C57.6806 154.421 52.4028 150.125 48.4207 144.737C43.9966 138.797 36.0785 136.819 29.9117 140.933L5.97312 154.339C3.25334 156.151 1.28913 158.895 0.449742 162.053C-0.389642 165.212 -0.0463801 168.568 1.415 171.491L87.3407 348.563H341.657L427.583 171.458C429.044 168.534 429.388 165.178 428.548 162.02C427.709 158.861 425.745 156.118 423.025 154.306V154.306Z" fill="#E6E6E6"/>
</svg>
