<svg width="344" height="429" viewBox="0 0 344 429" fill="none" xmlns="http://www.w3.org/2000/svg">
<path d="M328.9 0H278.85C275.057 0 271.42 1.5066 268.738 4.18837C266.057 6.87014 264.55 10.5074 264.55 14.3V57.2H221.65V14.3C221.65 10.5074 220.143 6.87014 217.462 4.18837C214.78 1.5066 211.143 0 207.35 0H135.85C132.057 0 128.42 1.5066 125.738 4.18837C123.057 6.87014 121.55 10.5074 121.55 14.3V57.2H78.7394V14.3C78.7394 10.5074 77.2328 6.87014 74.551 4.18837C71.8692 1.5066 68.232 0 64.4394 0H14.3C10.5074 0 6.87014 1.5066 4.18837 4.18837C1.5066 6.87014 0 10.5074 0 14.3L0 171.6L57.2 200.2C57.2 243.395 55.8236 285.106 45.3936 343.2H297.806C287.376 285.106 286 242.85 286 200.2L343.2 171.6V14.3C343.2 10.5074 341.693 6.87014 339.012 4.18837C336.33 1.5066 332.693 0 328.9 0V0ZM200.2 257.4H143V200.2C143 192.615 146.013 185.34 151.377 179.977C156.74 174.613 164.015 171.6 171.6 171.6C179.185 171.6 186.46 174.613 191.823 179.977C197.187 185.34 200.2 192.615 200.2 200.2V257.4ZM328.9 371.8H14.3C10.5074 371.8 6.87014 373.307 4.18837 375.988C1.5066 378.67 0 382.307 0 386.1L0 414.7C0 418.493 1.5066 422.13 4.18837 424.812C6.87014 427.493 10.5074 429 14.3 429H328.9C332.693 429 336.33 427.493 339.012 424.812C341.693 422.13 343.2 418.493 343.2 414.7V386.1C343.2 382.307 341.693 378.67 339.012 375.988C336.33 373.307 332.693 371.8 328.9 371.8Z" fill="#E6E6E6"/>
</svg>
